<svg width="53" height="55" viewBox="0 0 53 55" fill="none" xmlns="http://www.w3.org/2000/svg">
<path d="M7.88672 51.4883L0.609375 54.0898V3.74609L7.88672 1.14453V51.4883ZM52.1836 1.39062C51.4336 2.51562 50.543 3.57031 49.5117 4.55469C48.4805 5.53906 47.3438 6.40625 46.1016 7.15625C44.8828 7.90625 43.5938 8.50391 42.2344 8.94922C40.875 9.37109 39.5156 9.58203 38.1562 9.58203L37.3477 9.65234C36.457 10.7773 35.7773 11.8672 35.3086 12.9219C34.8398 13.9766 34.6055 15.2187 34.6055 16.6484V39.1133C34.6055 42.2305 33.9375 45.0078 32.6016 47.4453C31.2891 49.8594 29.3438 51.9453 26.7656 53.7031L25.6055 52.3672C26.0039 51.9219 26.3203 51.418 26.5547 50.8555C26.7891 50.2695 26.9648 49.6719 27.082 49.0625C27.1992 48.4531 27.2695 47.8438 27.293 47.2344C27.3398 46.6016 27.3633 46.0039 27.3633 45.4414V20.7266C27.3633 19.625 27.5859 18.5586 28.0312 17.5273C28.5 16.4727 29.0859 15.4766 29.7891 14.5391C30.4922 13.6016 31.2656 12.7227 32.1094 11.9023C32.9766 11.082 33.8086 10.332 34.6055 9.65234L22.9688 9.58203C22.0781 9.58203 21.2812 9.67578 20.5781 9.86328C19.8984 10.0273 19.2656 10.2734 18.6797 10.6016C18.0938 10.9297 17.5312 11.3398 16.9922 11.832C16.4531 12.3242 15.9023 12.8984 15.3398 13.5547L14.3203 12.4648C15.0938 11.4102 15.9609 10.2969 16.9219 9.125C17.9062 7.95313 18.9609 6.88672 20.0859 5.92578C21.2344 4.96484 22.4531 4.16797 23.7422 3.53516C25.0547 2.90234 26.4258 2.58594 27.8555 2.58594H43.043C43.6523 2.58594 44.332 2.55078 45.082 2.48047C45.8555 2.41016 46.6289 2.29297 47.4023 2.12891C48.1758 1.96484 48.9023 1.75391 49.582 1.49609C50.2852 1.21484 50.8711 0.863281 51.3398 0.441406L52.1836 1.39062Z" fill="#D3CECE"/>
</svg>
