<svg width="68" height="68" viewBox="0 0 68 68" fill="none" xmlns="http://www.w3.org/2000/svg">
<path d="M35.4414 8.65234L29.5352 15.7891C29.0195 14.2422 28.3516 12.7656 27.5312 11.3594C26.7109 9.95312 25.7383 8.72266 24.6133 7.66797C23.4883 6.61328 22.2109 5.76953 20.7812 5.13672C19.3516 4.50391 17.7578 4.1875 16 4.1875C14.7344 4.1875 13.5625 4.42188 12.4844 4.89062C11.4062 5.33594 10.457 5.96875 9.63672 6.78906C8.83984 7.58594 8.20703 8.53516 7.73828 9.63672C7.29297 10.7383 7.07031 11.9219 7.07031 13.1875C7.07031 14.5 7.31641 15.7305 7.80859 16.8789C8.30078 18.0273 8.95703 19.0703 9.77734 20.0078C10.5977 20.9219 11.5352 21.7188 12.5898 22.3984C13.668 23.0781 14.7812 23.6055 15.9297 23.9805C17.0781 24.3789 18.2852 24.8242 19.5508 25.3164C20.8164 25.8086 22.0586 26.3828 23.2773 27.0391C24.4961 27.6953 25.6562 28.4336 26.7578 29.2539C27.8594 30.0508 28.832 30.9531 29.6758 31.9609C30.5195 32.9688 31.1875 34.0938 31.6797 35.3359C32.1719 36.5547 32.418 37.8906 32.418 39.3438C32.418 41.4531 31.9492 43.3516 31.0117 45.0391C30.0977 46.7031 28.8906 48.1094 27.3906 49.2578C25.8906 50.4062 24.168 51.2852 22.2227 51.8945C20.3008 52.5039 18.3438 52.8086 16.3516 52.8086C14.9922 52.8086 13.6094 52.6094 12.2031 52.2109C10.8203 51.8125 9.48438 51.2734 8.19531 50.5938C6.92969 49.8906 5.73438 49.082 4.60938 48.168C3.50781 47.2539 2.54688 46.2695 1.72656 45.2148L7.42188 38.6758C7.77344 39.8008 8.38281 40.9961 9.25 42.2617C10.1406 43.5273 11.1719 44.6992 12.3438 45.7773C13.5156 46.8555 14.7695 47.7578 16.1055 48.4844C17.4648 49.1875 18.7773 49.5391 20.043 49.5391C20.7695 49.5391 21.5195 49.3516 22.293 48.9766C23.0664 48.6016 23.7695 48.1211 24.4023 47.5352C25.0586 46.9258 25.5977 46.2695 26.0195 45.5664C26.4414 44.8633 26.6523 44.1719 26.6523 43.4922C26.6523 42.4609 26.4414 41.4883 26.0195 40.5742C25.5977 39.6367 25.0352 38.7578 24.332 37.9375C23.6523 37.1172 22.8555 36.3672 21.9414 35.6875C21.0508 34.9844 20.1133 34.3633 19.1289 33.8242C18.168 33.2617 17.1953 32.7812 16.2109 32.3828C15.25 31.9609 14.3594 31.6328 13.5391 31.3984C11.9219 30.9062 10.3398 30.2031 8.79297 29.2891C7.26953 28.375 5.91016 27.2734 4.71484 25.9844C3.51953 24.6953 2.55859 23.2539 1.83203 21.6602C1.10547 20.043 0.742188 18.3203 0.742188 16.4922C0.742188 14.9219 0.988281 13.4336 1.48047 12.0273C1.97266 10.6211 2.65234 9.32031 3.51953 8.125C4.38672 6.92969 5.40625 5.85156 6.57812 4.89062C7.75 3.90625 9.01562 3.08594 10.375 2.42969C11.7344 1.75 13.1523 1.23438 14.6289 0.882812C16.1055 0.507812 17.5938 0.320312 19.0938 0.320312C22.375 0.320312 25.4219 1.05859 28.2344 2.53516C31.0469 3.98828 33.4492 6.02734 35.4414 8.65234ZM67.0117 63.3906C66.7305 63.9766 66.3672 64.5391 65.9219 65.0781C65.5 65.6406 65.0195 66.1328 64.4805 66.5547C63.9414 67 63.3438 67.3516 62.6875 67.6094C62.0547 67.8672 61.3867 67.9961 60.6836 67.9961C58.832 67.9961 57.4961 67.4805 56.6758 66.4492C55.8789 65.418 55.4805 64.0352 55.4805 62.3008V46.0234C55.0586 46.8203 54.5781 47.6172 54.0391 48.4141C53.5234 49.2109 52.9258 49.9258 52.2461 50.5586C51.5898 51.1914 50.8516 51.707 50.0312 52.1055C49.2109 52.5039 48.2969 52.7031 47.2891 52.7031C45.7656 52.7031 44.418 52.4102 43.2461 51.8242C42.0742 51.2383 41.0898 50.4531 40.293 49.4688C39.4961 48.4609 38.8984 47.2891 38.5 45.9531C38.1016 44.6172 37.9023 43.1992 37.9023 41.6992C37.9023 40.3398 38.0664 38.9688 38.3945 37.5859C38.7227 36.1797 39.1797 34.8438 39.7656 33.5781C40.375 32.2891 41.1133 31.082 41.9805 29.957C42.8711 28.832 43.8555 27.8594 44.9336 27.0391C46.0352 26.2188 47.2422 25.5742 48.5547 25.1055C49.8672 24.6133 51.2617 24.3672 52.7383 24.3672C53.6289 24.3672 54.5195 24.4727 55.4102 24.6836C56.3008 24.8945 57.1445 25.2109 57.9414 25.6328C58.7617 26.0312 59.5 26.5469 60.1562 27.1797C60.8359 27.8125 61.3867 28.5508 61.8086 29.3945L56.5703 31.6094C56.2891 31.1641 55.9609 30.7188 55.5859 30.2734C55.2344 29.8047 54.8359 29.3945 54.3906 29.043C53.9688 28.668 53.5 28.375 52.9844 28.1641C52.4922 27.9297 51.9766 27.8125 51.4375 27.8125C50.6406 27.8125 49.8906 28 49.1875 28.375C48.5078 28.7266 47.875 29.207 47.2891 29.8164C46.7266 30.4258 46.2227 31.1289 45.7773 31.9258C45.332 32.6992 44.957 33.5078 44.6523 34.3516C44.3477 35.1719 44.1133 35.9922 43.9492 36.8125C43.8086 37.6094 43.7383 38.3477 43.7383 39.0273C43.7383 39.918 43.8203 40.9258 43.9844 42.0508C44.1719 43.1523 44.4883 44.1953 44.9336 45.1797C45.3789 46.1641 45.9648 46.9961 46.6914 47.6758C47.418 48.3555 48.332 48.6953 49.4336 48.6953C50.7227 48.6953 51.7656 48.2852 52.5625 47.4648C53.3594 46.6445 53.9688 45.6484 54.3906 44.4766C54.8359 43.2812 55.1289 42.0391 55.2695 40.75C55.4102 39.4375 55.4805 38.2891 55.4805 37.3047V34.8086L61.8789 32.5586V62.4414C61.8789 62.8867 61.9961 63.2969 62.2305 63.6719C62.4648 64.0469 62.8281 64.2344 63.3203 64.2344C63.9062 64.2344 64.4336 64.0234 64.9023 63.6016C65.3945 63.2031 65.7812 62.793 66.0625 62.3711L67.0117 63.3906Z" fill="#E3CF1B"/>
</svg>
